TITLE ""
FILE "1Q_t_1578-1587.mp3" MP3
  TRACK 01 AUDIO
    TITLE "1Q_t_1578-1587_01"
    INDEX 01 00:00:00
  TRACK 02 AUDIO
    TITLE "1Q_t_1578-1587_02"
    INDEX 01 00:00:12
  TRACK 03 AUDIO
    TITLE "1Q_t_1578-1587_03"
    INDEX 01 00:01:41
  TRACK 04 AUDIO
    TITLE "1Q_t_1578-1587_04"
    INDEX 01 00:01:51
  TRACK 05 AUDIO
    TITLE "1Q_t_1578-1587_05"
    INDEX 01 00:04:08
  TRACK 06 AUDIO
    TITLE "1Q_t_1578-1587_06"
    INDEX 01 00:04:14
  TRACK 07 AUDIO
    TITLE "1Q_t_1578-1587_07"
    INDEX 01 00:08:06
  TRACK 08 AUDIO
    TITLE "1Q_t_1578-1587_08"
    INDEX 01 00:08:51
  TRACK 09 AUDIO
    TITLE "1Q_t_1578-1587_09"
    INDEX 01 00:09:60
  TRACK 10 AUDIO
    TITLE "1Q_t_1578-1587_10"
    INDEX 01 00:09:74
  TRACK 11 AUDIO
    TITLE "1Q_t_1578-1587_11"
    INDEX 01 00:11:18
  TRACK 12 AUDIO
    TITLE "1Q_t_1578-1587_12"
    INDEX 01 00:11:26
  TRACK 13 AUDIO
    TITLE "1Q_t_1578-1587_13"
    INDEX 01 00:17:03
  TRACK 14 AUDIO
    TITLE "1Q_t_1578-1587_14"
    INDEX 01 00:17:48
  TRACK 15 AUDIO
    TITLE "1Q_t_1578-1587_15"
    INDEX 01 00:18:59
  TRACK 16 AUDIO
    TITLE "1Q_t_1578-1587_16"
    INDEX 01 00:18:69
  TRACK 17 AUDIO
    TITLE "1Q_t_1578-1587_17"
    INDEX 01 00:20:15
  TRACK 18 AUDIO
    TITLE "1Q_t_1578-1587_18"
    INDEX 01 00:20:23
  TRACK 19 AUDIO
    TITLE "1Q_t_1578-1587_19"
    INDEX 01 00:24:44
  TRACK 20 AUDIO
    TITLE "1Q_t_1578-1587_20"
    INDEX 01 00:25:16
  TRACK 21 AUDIO
    TITLE "1Q_t_1578-1587_21"
    INDEX 01 00:26:33
  TRACK 22 AUDIO
    TITLE "1Q_t_1578-1587_22"
    INDEX 01 00:26:41
  TRACK 23 AUDIO
    TITLE "1Q_t_1578-1587_23"
    INDEX 01 00:30:27
  TRACK 24 AUDIO
    TITLE "1Q_t_1578-1587_24"
    INDEX 01 00:30:33
  TRACK 25 AUDIO
    TITLE "1Q_t_1578-1587_25"
    INDEX 01 00:33:51
  TRACK 26 AUDIO
    TITLE "1Q_t_1578-1587_26"
    INDEX 01 00:34:21
  TRACK 27 AUDIO
    TITLE "1Q_t_1578-1587_27"
    INDEX 01 00:35:44
  TRACK 28 AUDIO
    TITLE "1Q_t_1578-1587_28"
    INDEX 01 00:35:50
  TRACK 29 AUDIO
    TITLE "1Q_t_1578-1587_29"
    INDEX 01 00:36:71
  TRACK 30 AUDIO
    TITLE "1Q_t_1578-1587_30"
    INDEX 01 00:37:02
  TRACK 31 AUDIO
    TITLE "1Q_t_1578-1587_31"
    INDEX 01 00:41:56
  TRACK 32 AUDIO
    TITLE "1Q_t_1578-1587_32"
    INDEX 01 00:42:24
  TRACK 33 AUDIO
    TITLE "1Q_t_1578-1587_33"
    INDEX 01 00:43:36
  TRACK 34 AUDIO
    TITLE "1Q_t_1578-1587_34"
    INDEX 01 00:43:49
  TRACK 35 AUDIO
    TITLE "1Q_t_1578-1587_35"
    INDEX 01 00:44:62
  TRACK 36 AUDIO
    TITLE "1Q_t_1578-1587_36"
    INDEX 01 00:44:68
  TRACK 37 AUDIO
    TITLE "1Q_t_1578-1587_37"
    INDEX 01 00:49:05
  TRACK 38 AUDIO
    TITLE "1Q_t_1578-1587_38"
    INDEX 01 00:49:50
  TRACK 39 AUDIO
    TITLE "1Q_t_1578-1587_39"
    INDEX 01 00:50:63
  TRACK 40 AUDIO
    TITLE "1Q_t_1578-1587_40"
    INDEX 01 00:50:71
  TRACK 41 AUDIO
    TITLE "1Q_t_1578-1587_41"
    INDEX 01 00:52:25
  TRACK 42 AUDIO
    TITLE "1Q_t_1578-1587_42"
    INDEX 01 00:52:33
  TRACK 43 AUDIO
    TITLE "1Q_t_1578-1587_43"
    INDEX 01 00:57:36
  TRACK 44 AUDIO
    TITLE "1Q_t_1578-1587_44"
    INDEX 01 00:58:06
  TRACK 45 AUDIO
    TITLE "1Q_t_1578-1587_45"
    INDEX 01 00:59:21
  TRACK 46 AUDIO
    TITLE "1Q_t_1578-1587_46"
    INDEX 01 00:59:29
  TRACK 47 AUDIO
    TITLE "1Q_t_1578-1587_47"
    INDEX 01 01:01:00
  TRACK 48 AUDIO
    TITLE "1Q_t_1578-1587_48"
    INDEX 01 01:01:08
  TRACK 49 AUDIO
    TITLE "1Q_t_1578-1587_49"
    INDEX 01 01:05:12
  TRACK 50 AUDIO
    TITLE "1Q_t_1578-1587_50"
    INDEX 01 01:05:59
  TRACK 51 AUDIO
    TITLE "1Q_t_1578-1587_51"
    INDEX 01 01:07:07
  TRACK 52 AUDIO
    TITLE "1Q_t_1578-1587_52"
    INDEX 01 01:07:13
  TRACK 53 AUDIO
    TITLE "1Q_t_1578-1587_53"
    INDEX 01 01:08:43
  TRACK 54 AUDIO
    TITLE "1Q_t_1578-1587_54"
    INDEX 01 01:08:49
  TRACK 55 AUDIO
    TITLE "1Q_t_1578-1587_55"
    INDEX 01 01:13:68
  TRACK 56 AUDIO
    TITLE "1Q_t_1578-1587_56"
    INDEX 01 01:14:50
  TRACK 57 AUDIO
    TITLE "1Q_t_1578-1587_57"
    INDEX 01 01:15:69
  TRACK 58 AUDIO
    TITLE "1Q_t_1578-1587_58"
    INDEX 01 01:16:02
  TRACK 59 AUDIO
    TITLE "1Q_t_1578-1587_59"
    INDEX 01 01:18:42
  TRACK 60 AUDIO
    TITLE "1Q_t_1578-1587_60"
    INDEX 01 01:18:48
  TRACK 61 AUDIO
    TITLE "1Q_t_1578-1587_61"
    INDEX 01 01:21:73
